<svg width="370.3699920654297" height="91.22261253709894" viewBox="0 0 406 99.99833000379607" class="looka-1j8o68f"><defs id="SvgjsDefs3982"></defs><g id="SvgjsG3984" featurekey="textGroupContainer" transform="matrix(1,0,0,1,405,23)" fill="#f9f8eb"><rect xmlns="http://www.w3.org/2000/svg" y="0" height="1" width="1" opacity="0"></rect>
</g><g id="SvgjsG3985" featurekey="6VBqdG-0" transform="matrix(1.683728323693482,0,0,1.683728323693482,136.48464515096725,14.58135838153259)" fill="#f9f8eb"><path d="M17.46 11.44 l-15.44 0 l0 -4.88 l15.44 0 c0.37334 0 0.56 -0.18666 0.56 -0.56 s-0.18666 -0.56 -0.56 -0.56 l-16.56 0 l0 12.56 c0 0.37334 0.18666 0.56 0.56 0.56 s0.56 -0.18666 0.56 -0.56 l0 -5.44 l15.44 0 c0.37334 0 0.56 -0.18666 0.56 -0.56 s-0.18666 -0.56 -0.56 -0.56 z M19.520000000000003 6.119999999999999 l0 12 c0 0.36 0.18 0.54 0.54 0.54 c0.37334 0 0.56 -0.18 0.56 -0.54 l0 0 l0 -12 c0 -0.37334 -0.18666 -0.56 -0.56 -0.56 c-0.36 0 -0.54 0.18666 -0.54 0.56 z M38.56 5.4399999999999995 l-16 0 c-0.37334 0 -0.56 0.18666 -0.56 0.56 s0.18666 0.56 0.56 0.56 l7.44 0 l0 11.44 c0 0.37334 0.18666 0.56 0.56 0.56 s0.56 -0.18666 0.56 -0.56 l0 -11.44 l7.44 0 c0.37334 0 0.56 -0.18666 0.56 -0.56 s-0.18666 -0.56 -0.56 -0.56 z M56.46 8.14 c-0.81334 -0.94666 -1.8733 -1.6867 -3.18 -2.22 s-2.7 -0.8 -4.18 -0.8 c-2.44 0 -4.52 0.65334 -6.24 1.96 c-1.7733 1.3467 -2.66 2.9866 -2.66 4.92 s0.88666 3.5734 2.66 4.92 c1.72 1.3067 3.8 1.96 6.24 1.96 c1.48 0 2.8734 -0.26666 4.18 -0.8 s2.3666 -1.2733 3.18 -2.22 l0 0 c0.24 -0.29334 0.22666 -0.55334 -0.04 -0.78 c-0.10666 -0.09334 -0.23332 -0.14 -0.37998 -0.14 c-0.16 0 -0.29334 0.06 -0.4 0.18 l0 0 c-0.73334 0.82666 -1.6767 1.4767 -2.83 1.95 s-2.39 0.71 -3.71 0.71 c-2.1466 0 -3.98 -0.56666 -5.5 -1.7 s-2.28 -2.4934 -2.28 -4.08 s0.76 -2.9466 2.28 -4.08 s3.3534 -1.7 5.5 -1.7 c1.32 0 2.5566 0.23666 3.71 0.71 s2.0966 1.1233 2.83 1.95 l0 0 c0.10666 0.12 0.24 0.18 0.4 0.18 c0.14666 0 0.27332 -0.04666 0.37998 -0.14 c0.26666 -0.22666 0.28 -0.48666 0.04 -0.78 z M67.03999999999999 5.220000000000001 c-2.4266 0 -4.5066 0.66 -6.24 1.98 c-1.7733 1.3467 -2.66 2.9866 -2.66 4.92 s0.88666 3.5734 2.66 4.92 c1.72 1.3067 3.8 1.96 6.24 1.96 s4.5134 -0.65334 6.22 -1.96 c1.7733 -1.36 2.66 -3 2.66 -4.92 s-0.88666 -3.56 -2.66 -4.92 c-1.7333 -1.32 -3.8066 -1.98 -6.22 -1.98 z M74.82 12.120000000000001 c0 1.5867 -0.76 2.9434 -2.28 4.07 s-3.3534 1.69 -5.5 1.69 s-3.98 -0.56334 -5.5 -1.69 s-2.28 -2.4834 -2.28 -4.07 c0 -1.6 0.76 -2.9634 2.28 -4.09 s3.3534 -1.69 5.5 -1.69 s3.98 0.56334 5.5 1.69 s2.28 2.49 2.28 4.09 z M93.53999999999999 5.5600000000000005 c-0.37334 0 -0.56 0.18666 -0.56 0.56 l0 10.88 l-16 -12 l0 13.12 c0 0.36 0.18666 0.54 0.56 0.54 s0.56 -0.18 0.56 -0.54 l0 -10.9 l16 12 l0 -13.1 c0 -0.37334 -0.18666 -0.56 -0.56 -0.56 z M111.97999999999999 5.5600000000000005 c-0.37334 0 -0.56 0.18666 -0.56 0.56 l0 10.88 l-16 -12 l0 13.12 c0 0.36 0.18666 0.54 0.56 0.54 s0.56 -0.18 0.56 -0.54 l0 -10.9 l16 12 l0 -13.1 c0 -0.37334 -0.18666 -0.56 -0.56 -0.56 z M130.51999999999998 12.559999999999999 c0.37334 0 0.56 -0.18666 0.56 -0.56 s-0.18666 -0.56 -0.56 -0.56 l-15.44 0 l0 -4.88 l15.44 0 c0.37334 0 0.56 -0.18666 0.56 -0.56 s-0.18666 -0.56 -0.56 -0.56 l-16.56 0 l0 13.12 l16.56 0 c0.37334 0 0.56 -0.18666 0.56 -0.56 s-0.18666 -0.56 -0.56 -0.56 l-15.44 0 l0 -4.88 l15.44 0 z M148.82 5.4399999999999995 l-16 0 c-0.37334 0 -0.56 0.18666 -0.56 0.56 s0.18666 0.56 0.56 0.56 l7.44 0 l0 11.44 c0 0.37334 0.18666 0.56 0.56 0.56 s0.56 -0.18666 0.56 -0.56 l0 -11.44 l7.44 0 c0.37334 0 0.56 -0.18666 0.56 -0.56 s-0.18666 -0.56 -0.56 -0.56 z"></path></g></svg>