<svg width="24" height="24" viewBox="0 0 24 24" fill="none" xmlns="http://www.w3.org/2000/svg">
<g clip-path="url(#clip0_125_297)">
<path d="M16.7922 3.904C18.1066 3.97667 19.339 4.56591 20.2209 5.54331C21.1028 6.52071 21.5626 7.80705 21.5002 9.122C21.5002 12.194 18.8482 14.081 16.3032 16.344C13.7912 18.587 12.4382 19.813 12.0002 20.096C11.5232 19.787 9.85717 18.273 7.69717 16.344C5.14117 14.072 2.50017 12.167 2.50017 9.122C2.43773 7.80705 2.89755 6.52071 3.77943 5.54331C4.6613 4.56591 5.89373 3.97667 7.20817 3.904C7.93631 3.88193 8.65772 4.04919 9.30188 4.3894C9.94603 4.72962 10.4909 5.23117 10.8832 5.845C11.7232 7.02 11.8632 7.608 12.0032 7.608C12.1432 7.608 12.2812 7.02 13.1132 5.842C13.5032 5.22533 14.0483 4.7218 14.6939 4.38172C15.3395 4.04164 16.063 3.87691 16.7922 3.904ZM16.7922 1.904C15.8841 1.87493 14.9812 2.05109 14.1506 2.41935C13.3201 2.78762 12.5833 3.33851 11.9952 4.031C11.4075 3.34053 10.6723 2.79091 9.84371 2.42276C9.01515 2.0546 8.11445 1.87732 7.20817 1.904C5.36304 1.97615 3.62155 2.77599 2.36451 4.1286C1.10747 5.48121 0.43716 7.27654 0.500165 9.122C0.500165 12.732 3.05017 14.949 5.51517 17.092C5.79817 17.338 6.08417 17.586 6.36817 17.839L7.39517 18.757C8.51521 19.8228 9.68943 20.8301 10.9132 21.775C11.2369 21.9846 11.6144 22.0962 12.0002 22.0962C12.3859 22.0962 12.7634 21.9846 13.0872 21.775C14.3499 20.8013 15.5602 19.7615 16.7132 18.66L17.6352 17.836C17.9282 17.576 18.2252 17.317 18.5202 17.062C20.8542 15.037 23.5002 12.742 23.5002 9.122C23.5632 7.27654 22.8929 5.48121 21.6358 4.1286C20.3788 2.77599 18.6373 1.97615 16.7922 1.904Z" fill="#262626"/>
</g>
<defs>
<clipPath id="clip0_125_297">
<rect width="24" height="24" fill="white"/>
</clipPath>
</defs>
</svg>
